<svg width="16" height="16" viewBox="0 0 16 16" fill="none" xmlns="http://www.w3.org/2000/svg">
<path d="M7.99967 15.1666C4.04634 15.1666 0.833008 11.9533 0.833008 7.99992C0.833008 4.04659 4.04634 0.833252 7.99967 0.833252C11.953 0.833252 15.1663 4.04659 15.1663 7.99992C15.1663 11.9533 11.953 15.1666 7.99967 15.1666ZM7.99967 1.83325C4.59967 1.83325 1.83301 4.59992 1.83301 7.99992C1.83301 11.3999 4.59967 14.1666 7.99967 14.1666C11.3997 14.1666 14.1663 11.3999 14.1663 7.99992C14.1663 4.59992 11.3997 1.83325 7.99967 1.83325Z" fill="#A3A3A3"/>
<path d="M8.83995 10.8534C8.71328 10.8534 8.58661 10.8068 8.48661 10.7068L6.13328 8.35344C5.93995 8.1601 5.93995 7.8401 6.13328 7.64677L8.48661 5.29344C8.67995 5.1001 8.99995 5.1001 9.19328 5.29344C9.38661 5.48677 9.38661 5.80677 9.19328 6.0001L7.19328 8.0001L9.19328 10.0001C9.38661 10.1934 9.38661 10.5134 9.19328 10.7068C9.09995 10.8068 8.97328 10.8534 8.83995 10.8534Z" fill="#A3A3A3"/>
</svg>
