<svg width="16" height="16" viewBox="0 0 16 16" fill="none" xmlns="http://www.w3.org/2000/svg">
<path d="M7.99967 15.1666C4.04634 15.1666 0.833008 11.9533 0.833008 7.99992C0.833008 4.04659 4.04634 0.833252 7.99967 0.833252C11.953 0.833252 15.1663 4.04659 15.1663 7.99992C15.1663 11.9533 11.953 15.1666 7.99967 15.1666ZM7.99967 1.83325C4.59967 1.83325 1.83301 4.59992 1.83301 7.99992C1.83301 11.3999 4.59967 14.1666 7.99967 14.1666C11.3997 14.1666 14.1663 11.3999 14.1663 7.99992C14.1663 4.59992 11.3997 1.83325 7.99967 1.83325Z" fill="#A3A3A3"/>
<path d="M7.16044 10.8534C7.03378 10.8534 6.90711 10.8068 6.80711 10.7068C6.61378 10.5134 6.61378 10.1934 6.80711 10.0001L8.80711 8.0001L6.80711 6.0001C6.61378 5.80677 6.61378 5.48677 6.80711 5.29344C7.00044 5.1001 7.32044 5.1001 7.51378 5.29344L9.86711 7.64677C10.0604 7.8401 10.0604 8.1601 9.86711 8.35344L7.51378 10.7068C7.41378 10.8068 7.28711 10.8534 7.16044 10.8534Z" fill="#A3A3A3"/>
</svg>
