<svg width="20" height="20" viewBox="0 0 20 20" fill="none" xmlns="http://www.w3.org/2000/svg">
<path fill-rule="evenodd" clip-rule="evenodd" d="M9.16667 3.125C5.82995 3.125 3.125 5.82995 3.125 9.16667C3.125 12.5034 5.82995 15.2083 9.16667 15.2083C12.5034 15.2083 15.2083 12.5034 15.2083 9.16667C15.2083 5.82995 12.5034 3.125 9.16667 3.125ZM1.875 9.16667C1.875 5.13959 5.13959 1.875 9.16667 1.875C13.1937 1.875 16.4583 5.13959 16.4583 9.16667C16.4583 13.1937 13.1937 16.4583 9.16667 16.4583C5.13959 16.4583 1.875 13.1937 1.875 9.16667Z" fill="#A3A3A3"/>
<path fill-rule="evenodd" clip-rule="evenodd" d="M14.5581 14.5581C14.8021 14.314 15.1979 14.314 15.4419 14.5581L17.9419 17.0581C18.186 17.3021 18.186 17.6979 17.9419 17.9419C17.6979 18.186 17.3021 18.186 17.0581 17.9419L14.5581 15.4419C14.314 15.1979 14.314 14.8021 14.5581 14.5581Z" fill="#A3A3A3"/>
</svg>
