<svg width="20" height="20" viewBox="0 0 20 20" fill="none" xmlns="http://www.w3.org/2000/svg">
<path d="M18.333 6.04175L13.333 6.04175C12.9913 6.04175 12.708 5.75841 12.708 5.41675C12.708 5.07508 12.9913 4.79175 13.333 4.79175L18.333 4.79175C18.6747 4.79175 18.958 5.07508 18.958 5.41675C18.958 5.75841 18.6747 6.04175 18.333 6.04175Z" fill="#42288A"/>
<path d="M5.00033 6.04175L1.66699 6.04175C1.32533 6.04175 1.04199 5.75841 1.04199 5.41675C1.04199 5.07508 1.32533 4.79175 1.66699 4.79175L5.00033 4.79175C5.34199 4.79175 5.62533 5.07508 5.62533 5.41675C5.62533 5.75841 5.34199 6.04175 5.00033 6.04175Z" fill="#42288A"/>
<path d="M8.33366 8.95833C6.38366 8.95833 4.79199 7.36667 4.79199 5.41667C4.79199 3.46667 6.38366 1.875 8.33366 1.875C10.2837 1.875 11.8753 3.46667 11.8753 5.41667C11.8753 7.36667 10.2837 8.95833 8.33366 8.95833ZM8.33366 3.125C7.06699 3.125 6.04199 4.15 6.04199 5.41667C6.04199 6.68333 7.06699 7.70833 8.33366 7.70833C9.60033 7.70833 10.6253 6.68333 10.6253 5.41667C10.6253 4.15 9.60033 3.125 8.33366 3.125Z" fill="#42288A"/>
<path d="M18.3333 15.2083H15C14.6583 15.2083 14.375 14.9249 14.375 14.5833C14.375 14.2416 14.6583 13.9583 15 13.9583H18.3333C18.675 13.9583 18.9583 14.2416 18.9583 14.5833C18.9583 14.9249 18.675 15.2083 18.3333 15.2083Z" fill="#42288A"/>
<path d="M6.66699 15.2083H1.66699C1.32533 15.2083 1.04199 14.9249 1.04199 14.5833C1.04199 14.2416 1.32533 13.9583 1.66699 13.9583L6.66699 13.9583C7.00866 13.9583 7.29199 14.2416 7.29199 14.5833C7.29199 14.9249 7.00866 15.2083 6.66699 15.2083Z" fill="#42288A"/>
<path d="M11.6667 18.1251C9.71667 18.1251 8.125 16.5334 8.125 14.5834C8.125 12.6334 9.71667 11.0417 11.6667 11.0417C13.6167 11.0417 15.2083 12.6334 15.2083 14.5834C15.2083 16.5334 13.6167 18.1251 11.6667 18.1251ZM11.6667 12.2917C10.4 12.2917 9.375 13.3167 9.375 14.5834C9.375 15.8501 10.4 16.8751 11.6667 16.8751C12.9333 16.8751 13.9583 15.8501 13.9583 14.5834C13.9583 13.3167 12.9333 12.2917 11.6667 12.2917Z" fill="#42288A"/>
</svg>
