<svg width="14" height="13" viewBox="0 0 14 13" fill="none" xmlns="http://www.w3.org/2000/svg">
<path d="M6.04948 1.13195C6.47379 0.403453 7.52621 0.403453 7.95052 1.13195L9.18065 3.24394C9.33608 3.5108 9.59653 3.70003 9.89837 3.76539L12.2871 4.28267C13.1111 4.4611 13.4363 5.46201 12.8746 6.09067L11.2461 7.91323C11.0403 8.14352 10.9408 8.44971 10.9719 8.75696L11.2181 11.1886C11.3031 12.0274 10.4516 12.646 9.68017 12.3061L7.44357 11.3205C7.16097 11.1959 6.83903 11.1959 6.55643 11.3205L4.31983 12.3061C3.54836 12.646 2.69693 12.0274 2.78186 11.1887L3.02806 8.75696C3.05917 8.44971 2.95969 8.14352 2.75392 7.91323L1.12542 6.09067C0.563702 5.46201 0.88892 4.4611 1.71288 4.28267L4.10163 3.76539C4.40347 3.70003 4.66392 3.5108 4.81935 3.24394L6.04948 1.13195Z" fill="#D4D4D4"/>
</svg>
