<svg width="24" height="25" viewBox="0 0 24 25" fill="none" xmlns="http://www.w3.org/2000/svg">
<path d="M15.61 6.00002V16.16C15.61 16.56 15.49 16.95 15.27 17.28L12.54 21.34C12.11 21.99 11.04 22.45 10.13 22.11C9.15002 21.78 8.50002 20.68 8.71002 19.7L9.23002 16.43C9.27002 16.13 9.19002 15.86 9.02002 15.65C8.85002 15.46 8.60002 15.34 8.33002 15.34H4.22002C3.43002 15.34 2.75002 15.02 2.35002 14.46C1.97002 13.92 1.90002 13.22 2.15002 12.51L4.61002 5.02002C4.92002 3.78002 6.27002 2.77002 7.61002 2.77002H11.51C12.18 2.77002 13.12 3.00002 13.55 3.43002L14.83 4.42002C15.32 4.80002 15.61 5.38002 15.61 6.00002Z" fill="#E95356"/>
<path d="M18.7904 18.11H19.8204C21.3704 18.11 22.0004 17.51 22.0004 16.03V5.98002C22.0004 4.50002 21.3704 3.90002 19.8204 3.90002H18.7904C17.2404 3.90002 16.6104 4.50002 16.6104 5.98002V16.04C16.6104 17.51 17.2404 18.11 18.7904 18.11Z" fill="#E95356"/>
</svg>
